<svg width="36" height="36" viewBox="0 0 36 36" fill="none" xmlns="http://www.w3.org/2000/svg">
<path d="M17.0312 1.04688C17.3438 0.65625 17.9688 0.65625 18.3594 1.04688L34.6875 17.375C35.0781 17.7656 35.0781 18.3125 34.6875 18.7031L18.3594 35.0312C17.9688 35.4219 17.3438 35.4219 17.0312 35.0312L15.4688 33.5469C15.0781 33.1562 15.0781 32.5312 15.4688 32.2188L27.5781 20.0312H0.9375C0.390625 20.0312 0 19.6406 0 19.0938V16.9062C0 16.4375 0.390625 15.9688 0.9375 15.9688H27.5781L15.4688 3.85938C15.0781 3.54688 15.0781 2.92188 15.4688 2.53125L17.0312 1.04688Z" fill="white"/>
</svg>
