<svg width="36" height="36" viewBox="0 0 36 36" fill="none" xmlns="http://www.w3.org/2000/svg">
<path d="M18.8906 35.0312C18.5781 35.4219 17.9531 35.4219 17.5625 35.0312L1.23438 18.7031C0.84375 18.3125 0.84375 17.7656 1.23438 17.375L17.5625 1.04688C17.9531 0.65625 18.5781 0.65625 18.8906 1.04688L20.4531 2.53125C20.8438 2.92188 20.8438 3.54688 20.4531 3.85938L8.34375 15.9688H35.0625C35.5312 15.9688 36 16.4375 36 16.9062V19.0938C36 19.6406 35.5312 20.0312 35.0625 20.0312H8.34375L20.4531 32.2188C20.8438 32.5312 20.8438 33.1562 20.4531 33.5469L18.8906 35.0312Z" fill="white"/>
</svg>
