<svg width="156" height="26" viewBox="0 0 156 26" fill="none" xmlns="http://www.w3.org/2000/svg">
<g clip-path="url(#clip0_4_855)">
<path d="M74.4255 17.0054L59.8732 25.6994H88.9779L74.4255 17.0054Z" fill="#A5BEEB"/>
<path d="M81.5105 12.7721L74.4272 0.510742L67.3439 12.7721L74.4272 17.0053L81.5105 12.7721Z" fill="#ED706B"/>
<path d="M67.3422 12.772L59.8732 25.6992L74.4255 17.0051L67.3422 12.772Z" fill="white"/>
<path d="M16.8885 12.8422C18.9574 13.105 21.2893 15.134 21.2893 18.7083C21.2893 22.8083 18.768 25.6993 13.1645 25.6993H0.709106V0.510742H13.1259C17.6775 0.510742 20.5739 3.29312 20.5739 7.50173C20.5739 10.6976 18.3928 12.4252 16.885 12.6915V12.8422H16.8885ZM5.82873 11.0375H12.2247C14.2551 11.0375 15.6121 9.76197 15.6121 7.8066C15.6121 6.04045 14.22 4.87354 12.5649 4.87354H5.82522V11.0375H5.82873ZM12.6 21.34C14.8968 21.34 16.061 20.0995 16.061 18.2212C16.061 16.343 14.7074 15.1024 12.7893 15.1024H5.82522V21.3435H12.5964L12.6 21.34ZM47.1925 25.7028L38.8783 16.4551H36.2063V25.7028H31.0902V0.510742H43.1669C48.5846 0.510742 52.1964 3.70662 52.1964 8.47941C52.1964 12.6915 49.3736 15.6982 44.9728 16.3359L53.4377 25.6958H47.1925V25.7028ZM43.1669 11.8295C45.5374 11.8295 47.1153 10.4768 47.1153 8.48292C47.1153 6.489 45.5338 5.13636 43.1669 5.13636H36.2063V11.8295H43.1669ZM106.173 25.7028H101.254L90.3937 0.510742H96.0287L103.691 18.859L111.391 0.510742H117.026L106.173 25.6993V25.7028ZM144.002 25.7028H124.853V0.510742H143.929V5.13285H129.973V10.8132H142.838V15.3618H129.973V21.0772H144.006V25.6993L144.002 25.7028ZM150.051 3.95192H149.269V1.20458H148.242V0.510742H151.082V1.20458H150.055V3.95192H150.051ZM153.561 3.13543H153.495L152.544 1.6286V3.95192H151.805V0.510742H152.632L153.537 1.9615L154.442 0.510742H155.248V3.95192H154.508V1.6286L153.558 3.13543H153.561Z" fill="white"/>
</g>
<defs>
<clipPath id="clip0_4_855">
<rect width="154.535" height="25.1886" fill="white" transform="translate(0.709106 0.510742)"/>
</clipPath>
</defs>
</svg>
