<svg width="28" height="22" viewBox="0 0 28 22" fill="none" xmlns="http://www.w3.org/2000/svg">
<path d="M1 6.28125V5.46875C1 4.80859 1.50781 4.25 2.21875 4.25H20.5V1.8125C20.5 0.746094 21.7695 0.1875 22.5312 1L26.5938 5.0625C27.1016 5.51953 27.1016 6.28125 26.5938 6.73828L22.5312 10.8008C21.7695 11.5625 20.5 11.0547 20.5 9.9375V7.5H2.21875C1.50781 7.5 1 6.99219 1 6.28125ZM25.7812 14C26.4414 14 27 14.5586 27 15.2188V16.0312C27 16.7422 26.4414 17.25 25.7812 17.25H7.5V19.6875C7.5 20.8047 6.17969 21.3125 5.41797 20.5508L1.35547 16.4883C0.847656 16.0312 0.847656 15.2695 1.35547 14.8125L5.41797 10.75C6.17969 9.9375 7.5 10.4961 7.5 11.5625V14H25.7812Z" fill="white"/>
</svg>
