<svg width="30" height="27" viewBox="0 0 30 27" fill="none" xmlns="http://www.w3.org/2000/svg">
<path d="M21.125 12.125C21.125 13.9531 19.6523 15.375 17.875 15.375H8.22656L4.01172 18.5234C3.70703 18.7773 3.25 18.5742 3.25 18.168V15.375C1.42188 15.375 0 13.9531 0 12.125V4C0 2.22266 1.42188 0.75 3.25 0.75H17.875C19.6523 0.75 21.125 2.22266 21.125 4V12.125ZM26 8.875C27.7773 8.875 29.25 10.3477 29.25 12.125V20.25C29.25 22.0781 27.7773 23.5 26 23.5H24.375V26.293C24.375 26.6992 23.8672 26.9023 23.5625 26.6992L19.3477 23.5H13C11.1719 23.5 9.75 22.0781 9.75 20.25V17H17.875C20.5156 17 22.75 14.8164 22.75 12.125V8.875H26Z" fill="white"/>
</svg>
