<svg width="155" height="38" viewBox="0 0 155 38" fill="none" xmlns="http://www.w3.org/2000/svg">
<path fill-rule="evenodd" clip-rule="evenodd" d="M0 19.0336L8.93543 1.06852V1.32004V1.06852H11.4465L19.534 16.9855H22.3059L18.4252 9.44023H26.0888L29.9043 16.9855H32.6436L24.5561 0.924805H27.0998L36.3613 18.8898L35.1221 21.3331H18.8166L17.4795 24.0278H25.2409L21.1646 32.2558H13.5662L12.2944 34.7709H28.4042L27.1324 37.286H9.16371L7.72882 34.5194L15.8163 18.2072L14.4467 15.5124L10.6312 23.2733L6.91354 15.6921L10.6312 8.25454L9.26154 5.52385L1.27183 21.6565L0 19.0336ZM2.6741 24.3153L5.9352 18.0994L9.65285 25.6088L6.58744 31.8247L2.6741 24.3153ZM33.8176 24.0997H27.7194L23.6756 32.3277H29.8065L33.8176 24.0997ZM17.1534 6.85327H24.7844L21.7841 0.924805H14.2184L17.1534 6.85327Z" fill="white"/>
<path d="M56.5374 12.0554V27.6055H53.0893V12.0554H56.5374ZM62.3067 18.0275V20.6192H56.3571V18.0275H62.3067ZM65.5069 12.0554V27.6055H62.0588V12.0554H65.5069ZM74.3278 16.1795C75.2593 16.1795 76.0481 16.3072 76.6941 16.5626C77.3401 16.803 77.8284 17.2237 78.159 17.8247C78.5045 18.4106 78.6773 19.2219 78.6773 20.2586V27.6055H76.018L75.5447 25.1941L75.3194 24.856V20.2361C75.3194 19.7102 75.1917 19.3271 74.9363 19.0867C74.6959 18.8463 74.2301 18.7261 73.539 18.7261C72.9681 18.7261 72.2544 18.7487 71.398 18.7937C70.5417 18.8238 69.6627 18.8689 68.7613 18.929L68.4458 16.7204C68.9866 16.6152 69.6102 16.5251 70.3163 16.45C71.0224 16.3748 71.7286 16.3147 72.4347 16.2697C73.1409 16.2096 73.7719 16.1795 74.3278 16.1795ZM77.3026 20.7544L77.28 22.6249L72.322 22.6475C71.9164 22.6475 71.6234 22.7451 71.4431 22.9404C71.2778 23.1357 71.1952 23.3987 71.1952 23.7292V24.2701C71.1952 24.6457 71.3004 24.9387 71.5107 25.149C71.7211 25.3443 72.0591 25.442 72.5249 25.442C72.9155 25.442 73.3362 25.3593 73.7869 25.1941C74.2527 25.0288 74.7109 24.7959 75.1616 24.4954C75.6123 24.195 76.0105 23.8419 76.356 23.4362V24.8786C76.2208 25.1039 76.018 25.3894 75.7476 25.7349C75.4922 26.0655 75.1616 26.396 74.756 26.7265C74.3503 27.0421 73.877 27.3125 73.3362 27.5379C72.7953 27.7632 72.1793 27.8759 71.4882 27.8759C70.8121 27.8759 70.2036 27.7557 69.6627 27.5153C69.1219 27.2749 68.6937 26.9219 68.3782 26.4561C68.0627 25.9904 67.9049 25.4119 67.9049 24.7208V23.5715C67.9049 22.685 68.2054 21.9939 68.8064 21.4981C69.4073 21.0023 70.2337 20.7544 71.2854 20.7544H77.3026ZM86.4819 16.1795C86.8876 16.1795 87.3308 16.202 87.8116 16.2471C88.2924 16.2772 88.7731 16.3448 89.2539 16.45C89.7497 16.5401 90.2004 16.6753 90.6061 16.8556L90.2455 18.9515C89.6445 18.9365 89.0661 18.9214 88.5102 18.9064C87.9693 18.8914 87.481 18.8839 87.0453 18.8839C86.3693 18.8839 85.8359 18.974 85.4453 19.1543C85.0546 19.3346 84.7692 19.6576 84.5889 20.1234C84.4236 20.5741 84.341 21.2051 84.341 22.0164C84.341 22.8428 84.4236 23.4888 84.5889 23.9546C84.7692 24.4203 85.0546 24.7433 85.4453 24.9236C85.8359 25.1039 86.3693 25.1941 87.0453 25.1941C87.2857 25.1941 87.5937 25.1866 87.9693 25.1715C88.3449 25.1565 88.7506 25.1415 89.1863 25.1265C89.622 25.0964 90.0502 25.0513 90.4709 24.9912L90.7864 27.1097C90.1854 27.3801 89.5018 27.5754 88.7356 27.6956C87.9693 27.8158 87.2106 27.8759 86.4594 27.8759C85.0772 27.8759 83.9729 27.6881 83.1465 27.3125C82.3352 26.9219 81.7493 26.2984 81.3887 25.442C81.0281 24.5856 80.8478 23.4437 80.8478 22.0164C80.8478 20.5891 81.0281 19.4473 81.3887 18.5909C81.7643 17.7345 82.3653 17.1185 83.1916 16.7429C84.018 16.3673 85.1147 16.1795 86.4819 16.1795ZM103.537 16.4725L100.63 20.3487C100.495 20.5591 100.322 20.7619 100.112 20.9572C99.9014 21.1525 99.7286 21.2953 99.5934 21.3854V21.4756C99.7286 21.5507 99.9014 21.7084 100.112 21.9488C100.322 22.1892 100.495 22.4296 100.63 22.67L103.92 27.6055H100.202L96.3932 21.3403L99.8187 16.4725H103.537ZM96.1002 11.83L96.1228 18.343C96.1228 18.8689 96.0927 19.3797 96.0326 19.8755C95.9725 20.3713 95.8824 20.8596 95.7622 21.3403C95.8673 21.8061 95.95 22.2869 96.0101 22.7827C96.0702 23.2635 96.1002 23.7142 96.1002 24.1349V27.6055H92.7648V11.83H96.1002ZM97.6552 20.3938V22.4221H95.0635V20.3938H97.6552ZM111.236 16.1795C112.167 16.1795 112.956 16.3072 113.602 16.5626C114.248 16.803 114.736 17.2237 115.067 17.8247C115.412 18.4106 115.585 19.2219 115.585 20.2586V27.6055H112.926L112.452 25.1941L112.227 24.856V20.2361C112.227 19.7102 112.099 19.3271 111.844 19.0867C111.604 18.8463 111.138 18.7261 110.447 18.7261C109.876 18.7261 109.162 18.7487 108.306 18.7937C107.449 18.8238 106.57 18.8689 105.669 18.929L105.354 16.7204C105.894 16.6152 106.518 16.5251 107.224 16.45C107.93 16.3748 108.636 16.3147 109.342 16.2697C110.049 16.2096 110.68 16.1795 111.236 16.1795ZM114.21 20.7544L114.188 22.6249L109.23 22.6475C108.824 22.6475 108.531 22.7451 108.351 22.9404C108.186 23.1357 108.103 23.3987 108.103 23.7292V24.2701C108.103 24.6457 108.208 24.9387 108.418 25.149C108.629 25.3443 108.967 25.442 109.433 25.442C109.823 25.442 110.244 25.3593 110.695 25.1941C111.16 25.0288 111.619 24.7959 112.069 24.4954C112.52 24.195 112.918 23.8419 113.264 23.4362V24.8786C113.129 25.1039 112.926 25.3894 112.655 25.7349C112.4 26.0655 112.069 26.396 111.664 26.7265C111.258 27.0421 110.785 27.3125 110.244 27.5379C109.703 27.7632 109.087 27.8759 108.396 27.8759C107.72 27.8759 107.111 27.7557 106.57 27.5153C106.03 27.2749 105.601 26.9219 105.286 26.4561C104.97 25.9904 104.813 25.4119 104.813 24.7208V23.5715C104.813 22.685 105.113 21.9939 105.714 21.4981C106.315 21.0023 107.141 20.7544 108.193 20.7544H114.21ZM123.164 16.1795C124.456 16.1795 125.478 16.2997 126.229 16.5401C126.996 16.7805 127.544 17.1561 127.874 17.6669C128.22 18.1777 128.393 18.8613 128.393 19.7177C128.393 20.5441 128.228 21.2202 127.897 21.746C127.566 22.2568 127.011 22.6324 126.229 22.8728C125.463 23.1132 124.434 23.2334 123.142 23.2334C121.85 23.2334 120.813 23.1132 120.032 22.8728C119.266 22.6324 118.71 22.2568 118.364 21.746C118.034 21.2352 117.868 20.5591 117.868 19.7177C117.868 18.8764 118.034 18.2003 118.364 17.6895C118.71 17.1636 119.273 16.7805 120.054 16.5401C120.836 16.2997 121.872 16.1795 123.164 16.1795ZM123.142 18.2303C122.315 18.2303 121.745 18.343 121.429 18.5684C121.114 18.7787 120.956 19.1618 120.956 19.7177C120.956 20.2736 121.114 20.6643 121.429 20.8896C121.745 21.115 122.315 21.2277 123.142 21.2277C123.968 21.2277 124.532 21.115 124.832 20.8896C125.133 20.6643 125.283 20.2736 125.283 19.7177C125.283 19.1618 125.133 18.7787 124.832 18.5684C124.532 18.343 123.968 18.2303 123.142 18.2303ZM129.677 16.4725L129.497 17.8923L126.522 18.2754L125.711 16.4725H129.677ZM119.784 22.5573L121.452 22.8503C121.241 22.9705 121.091 23.1583 121.001 23.4137C120.926 23.6691 120.948 23.9095 121.068 24.1349C121.189 24.3602 121.452 24.4954 121.857 24.5405L125.959 25.0138C127.131 25.134 127.957 25.4645 128.438 26.0054C128.919 26.5312 129.159 27.305 129.159 28.3266C129.159 29.2882 128.964 30.0244 128.573 30.5352C128.182 31.0611 127.559 31.4216 126.703 31.6169C125.846 31.8123 124.704 31.9099 123.277 31.9099C122.105 31.9099 121.136 31.8498 120.37 31.7296C119.619 31.6245 119.018 31.4442 118.567 31.1888C118.131 30.9333 117.823 30.5953 117.643 30.1746C117.478 29.769 117.395 29.2581 117.395 28.6421C117.395 28.1764 117.478 27.7782 117.643 27.4477C117.808 27.1022 118.086 26.7942 118.477 26.5237C118.882 26.2533 119.446 26.0054 120.167 25.78L121.812 25.1941L123.007 25.6673L122.105 26.2533C121.73 26.5237 121.422 26.7566 121.181 26.9519C120.956 27.1322 120.79 27.3125 120.685 27.4928C120.595 27.6731 120.55 27.9135 120.55 28.214C120.55 28.5595 120.625 28.8224 120.775 29.0027C120.926 29.198 121.196 29.3257 121.587 29.3858C121.992 29.461 122.541 29.4985 123.232 29.4985C123.953 29.4985 124.517 29.461 124.922 29.3858C125.328 29.3257 125.606 29.2056 125.756 29.0253C125.921 28.845 126.004 28.5896 126.004 28.259C126.004 27.9736 125.944 27.7632 125.824 27.628C125.718 27.4928 125.531 27.3951 125.26 27.335C125.005 27.2599 124.644 27.1923 124.178 27.1322L120.685 26.7491C120.099 26.689 119.641 26.5312 119.311 26.2758C118.98 26.0204 118.747 25.7124 118.612 25.3518C118.492 24.9762 118.462 24.6006 118.522 24.225C118.582 23.8494 118.717 23.5114 118.927 23.2109C119.153 22.9104 119.438 22.6925 119.784 22.5573ZM136.443 16.1795C138.321 16.1795 139.665 16.5025 140.477 17.1486C141.303 17.7796 141.716 18.7261 141.716 19.9882C141.731 21.0098 141.476 21.7761 140.95 22.2869C140.424 22.7827 139.515 23.0306 138.223 23.0306H132.003V21.1601H137.299C137.81 21.1601 138.133 21.0549 138.268 20.8445C138.418 20.6192 138.493 20.3112 138.493 19.9206C138.478 19.3947 138.321 19.0341 138.02 18.8388C137.735 18.6285 137.246 18.5233 136.555 18.5233C135.939 18.5233 135.459 18.6059 135.113 18.7712C134.767 18.9365 134.527 19.252 134.392 19.7177C134.257 20.1835 134.189 20.8596 134.189 21.746C134.189 22.6775 134.272 23.3987 134.437 23.9095C134.602 24.4053 134.88 24.7509 135.271 24.9462C135.676 25.1415 136.232 25.2391 136.938 25.2391C137.449 25.2391 138.08 25.2241 138.832 25.1941C139.598 25.149 140.364 25.0814 141.13 24.9912L141.446 27.0421C141.01 27.2524 140.514 27.4177 139.958 27.5379C139.402 27.6581 138.832 27.7407 138.246 27.7858C137.66 27.8459 137.096 27.8759 136.555 27.8759C135.143 27.8759 134.001 27.6731 133.13 27.2674C132.273 26.8467 131.65 26.2082 131.259 25.3518C130.884 24.4954 130.696 23.3987 130.696 22.0615C130.696 20.6042 130.891 19.4473 131.282 18.5909C131.672 17.7345 132.288 17.1185 133.13 16.7429C133.971 16.3673 135.075 16.1795 136.443 16.1795ZM148.127 16.1795C148.668 16.1795 149.254 16.202 149.885 16.2471C150.516 16.2772 151.132 16.3222 151.733 16.3823C152.334 16.4424 152.867 16.5176 153.333 16.6077L153.107 18.6811C152.386 18.666 151.657 18.6585 150.921 18.6585C150.2 18.6435 149.494 18.636 148.803 18.636C148.217 18.621 147.766 18.6285 147.451 18.6585C147.135 18.6886 146.91 18.7637 146.775 18.8839C146.654 18.9891 146.594 19.1844 146.594 19.4698C146.594 19.8004 146.707 20.0257 146.932 20.1459C147.158 20.2511 147.533 20.3713 148.059 20.5065L150.966 21.2051C151.898 21.4455 152.589 21.8061 153.04 22.2869C153.49 22.7526 153.716 23.4588 153.716 24.4053C153.716 25.3368 153.543 26.0505 153.197 26.5463C152.852 27.0421 152.303 27.3876 151.552 27.5829C150.801 27.7632 149.832 27.8534 148.645 27.8534C148.179 27.8534 147.488 27.8308 146.572 27.7858C145.655 27.7407 144.649 27.628 143.552 27.4477L143.777 25.3744C144.048 25.3894 144.393 25.4044 144.814 25.4194C145.235 25.4194 145.693 25.4194 146.189 25.4194C146.684 25.4194 147.18 25.4194 147.676 25.4194C148.442 25.4194 149.028 25.4044 149.434 25.3744C149.839 25.3293 150.117 25.2391 150.268 25.1039C150.418 24.9687 150.493 24.7659 150.493 24.4954C150.493 24.1649 150.365 23.9395 150.11 23.8194C149.855 23.6992 149.449 23.5715 148.893 23.4362L146.076 22.7376C145.37 22.5423 144.821 22.2944 144.431 21.9939C144.04 21.6934 143.762 21.3253 143.597 20.8896C143.447 20.4539 143.372 19.9356 143.372 19.3346C143.372 18.5684 143.522 17.9599 143.822 17.5092C144.138 17.0434 144.641 16.7054 145.332 16.495C146.038 16.2847 146.97 16.1795 148.127 16.1795Z" fill="white"/>
</svg>
