<svg width="155" height="28" viewBox="0 0 155 28" fill="none" xmlns="http://www.w3.org/2000/svg">
<path d="M31.5046 4.16016H34.8137V14.4285L43.7449 4.16016H47.8628L40.0055 12.9416L48.2121 24.5811H44.1751L37.7444 15.3929L34.8105 18.6614V24.5811H31.5014V4.16016H31.5046Z" fill="white"/>
<path d="M50.0396 3.45947H53.5364V6.81212H50.0396V3.45947ZM50.1463 9.1758H53.4296V24.5783H50.1463V9.1758Z" fill="white"/>
<path d="M57.6807 20.3202V12.2121H55.879V9.1786H57.6807V4.94922H60.9349V9.1786H64.7551V12.2121H60.9349V19.7661C60.9349 21.1373 61.5818 21.6914 62.6849 21.6914C63.3836 21.6914 64.0564 21.516 64.7034 21.1654V24.0516C63.8688 24.546 63.0342 24.8406 61.7695 24.8406C59.3757 24.8406 57.6807 23.7009 57.6807 20.3202Z" fill="white"/>
<path d="M66.2108 16.9646V16.905C66.2108 12.5283 69.3323 8.85303 73.6087 8.85303C76.2709 8.85303 77.9141 9.93317 79.2857 11.5078L77.2413 13.8715C76.245 12.7352 75.1969 11.9462 73.5828 11.9462C71.2149 11.9462 69.4649 14.1626 69.4649 16.8454V16.905C69.4649 19.6474 71.2149 21.8358 73.7154 21.8358C75.2487 21.8358 76.3517 21.0783 77.3998 19.9385L79.3633 22.0392C77.9626 23.7611 76.3226 24.9254 73.5504 24.9254C69.3291 24.9289 66.2108 21.3413 66.2108 16.9646Z" fill="white"/>
<path d="M81.653 3.28369H84.9363V11.539C85.8776 10.1082 87.1424 8.85623 89.3744 8.85623C92.6027 8.85623 94.4335 11.1603 94.4335 14.7479V24.5779H91.1794V15.8281C91.1794 13.4083 90.0763 12.0651 88.1387 12.0651C86.2302 12.0651 84.9363 13.4644 84.9363 15.8877V24.5814H81.653V3.28369Z" fill="white"/>
<path d="M98.0637 4.16016H106.513C108.693 4.16016 110.333 4.77386 111.436 5.96973C112.271 6.87453 112.701 8.01079 112.701 9.35395V9.41356C112.701 11.893 111.41 13.1765 110.01 13.9621C112.242 14.8073 113.749 16.1188 113.749 18.9209V18.9805C113.749 22.6278 110.977 24.5811 106.781 24.5811H98.0637V4.16016ZM109.389 9.93609C109.389 8.30185 108.231 7.34095 106.079 7.34095H101.318V12.7662H105.837C107.988 12.7662 109.389 11.8614 109.389 9.99572V9.93609ZM110.44 18.5387C110.44 16.7887 109.175 15.7962 106.565 15.7962H101.318V21.3968H106.807C109.068 21.3968 110.44 20.464 110.44 18.5983V18.5387Z" fill="white"/>
<path d="M115.469 20.1448V20.0852C115.469 16.7326 117.892 15.1264 121.36 15.1264C122.974 15.1264 124.077 15.3894 125.18 15.7682V15.3894C125.18 13.173 123.941 12.0333 121.654 12.0333C120.04 12.0333 118.882 12.412 117.591 12.9977L116.702 10.2272C118.29 9.49773 119.823 8.97168 122.081 8.97168C124.206 8.97168 125.765 9.55383 126.791 10.6936C127.839 11.8298 128.324 13.436 128.324 15.449V24.5776H125.151V22.6523C124.184 23.9078 122.702 24.8968 120.522 24.8968C117.863 24.8968 115.469 23.266 115.469 20.1448ZM125.235 19.0366V17.9881C124.4 17.6374 123.297 17.3743 122.007 17.3743C119.881 17.3743 118.671 18.3072 118.671 19.9414V20.001C118.671 21.488 119.855 22.3332 121.444 22.3332C123.595 22.3332 125.235 21.0181 125.235 19.0366Z" fill="white"/>
<path d="M132.097 20.3202V12.2121H130.295V9.1786H132.097V4.94922H135.351V9.1786H139.171V12.2121H135.351V19.7661C135.351 21.1373 135.998 21.6914 137.101 21.6914C137.8 21.6914 138.472 21.516 139.119 21.1654V24.0516C138.285 24.546 137.45 24.8406 136.185 24.8406C133.792 24.8406 132.097 23.7009 132.097 20.3202Z" fill="white"/>
<path d="M141.78 3.28369H145.063V11.539C146.005 10.1082 147.269 8.85623 149.501 8.85623C152.73 8.85623 154.561 11.1603 154.561 14.7479V24.5779H151.303V15.8281C151.303 13.4083 150.2 12.0651 148.263 12.0651C146.351 12.0651 145.06 13.4644 145.06 15.8877V24.5814H141.777V3.28369H141.78Z" fill="white"/>
<path d="M23.1015 27.4502H14.8787L7.04736 14.1343H15.2701L23.1015 27.4502Z" fill="white"/>
<path d="M0.0279474 27.3921H7.04736L7.04736 0.760305H0.0279474L0.0279474 27.3921Z" fill="white"/>
<path d="M21.672 5.17443L18.793 0.762695L15.9141 5.17443C14.921 6.69294 15.086 8.76906 16.299 10.0842C17.677 11.5781 19.909 11.5781 21.2838 10.0842C22.5001 8.76555 22.665 6.69294 21.672 5.17443Z" fill="white"/>
</svg>
