<svg width="143" height="38" viewBox="0 0 143 38" fill="none" xmlns="http://www.w3.org/2000/svg">
<path d="M55.5099 24.4327C54.2129 24.4327 52.8923 23.6309 52.4914 21.9565L50.2511 12.4292H53.3875L55.4156 21.3198C55.4156 21.367 55.392 21.367 55.4864 21.367C55.5571 21.367 55.5335 21.3434 55.5335 21.3434L57.255 14.5752C57.7031 12.9009 58.67 12.0755 60.1085 12.0755C61.5706 12.0755 62.5139 12.9009 62.9148 14.5281L64.6364 21.3434C64.6364 21.367 64.6364 21.3906 64.7071 21.3906C64.7779 21.3906 64.7779 21.367 64.7779 21.3198L66.7352 12.4292H69.8245L67.6785 21.9565C67.3012 23.6545 65.957 24.4327 64.6835 24.4327C63.3157 24.4327 62.3017 23.6073 61.8772 21.9565L60.1321 14.9997C60.1321 14.9997 60.1557 14.9761 60.0849 14.9761C60.0378 14.9761 60.0614 14.9997 60.0614 14.9997L58.3163 21.9565C57.9154 23.6073 56.8777 24.4327 55.5099 24.4327ZM76.2736 24.4091C72.6419 24.4091 69.9063 21.8858 69.9063 18.1598C69.9063 14.7875 72.3589 12.0047 75.967 12.0047C79.6694 12.0047 81.8154 14.7403 81.8154 17.9239V18.9144H73.1371C73.3729 20.4708 74.5756 21.5085 76.25 21.5085C77.5234 21.5085 78.5846 20.8953 79.127 19.8105L81.6975 21.1076C80.6835 23.2064 78.7497 24.4091 76.2736 24.4091ZM73.2786 17.0514H78.4903C78.3488 15.8487 77.3584 14.929 75.9434 14.929C74.4813 14.929 73.5144 15.8723 73.2786 17.0514ZM88.7719 29.7859C86.0363 29.7859 83.9375 28.5832 82.8763 26.4136L85.659 24.9043C86.1778 25.9184 87.1447 26.7202 88.7247 26.7202C90.7057 26.7202 92.0499 25.3288 92.0499 23.0413V22.8291C91.4131 23.6309 90.2812 24.244 88.6304 24.244C85.3524 24.244 82.7348 21.6971 82.7348 18.2305C82.7348 14.8582 85.4704 12.0991 89.0549 12.0991C92.7102 12.0991 95.3986 14.7167 95.3986 18.2305V22.947C95.3986 27.0975 92.5687 29.7859 88.7719 29.7859ZM89.0077 21.084C90.6821 21.084 92.0027 19.8341 92.0027 18.1598C92.0027 16.4854 90.6821 15.2591 89.0077 15.2591C87.3569 15.2591 86.0363 16.4854 86.0363 18.1598C86.0363 19.8341 87.3569 21.084 89.0077 21.084ZM103.036 24.4091C99.4043 24.4091 96.6687 21.8858 96.6687 18.1598C96.6687 14.7875 99.1213 12.0047 102.729 12.0047C106.432 12.0047 108.578 14.7403 108.578 17.9239V18.9144H99.8995C100.135 20.4708 101.338 21.5085 103.012 21.5085C104.286 21.5085 105.347 20.8953 105.889 19.8105L108.46 21.1076C107.446 23.2064 105.512 24.4091 103.036 24.4091ZM100.041 17.0514H105.253C105.111 15.8487 104.121 14.929 102.706 14.929C101.244 14.929 100.277 15.8723 100.041 17.0514ZM124.802 12.0047C128.599 12.0047 130.533 14.7403 130.533 17.9947V24.1025H127.184V18.5607C127.184 16.7684 126.406 15.2591 124.566 15.2591C122.751 15.2591 121.972 16.7448 121.972 18.5135V24.1025H118.624V18.5371C118.624 16.7448 117.845 15.2591 116.03 15.2591C114.167 15.2591 113.435 16.7684 113.435 18.5371V24.1025H110.087V17.9947C110.087 14.7403 111.997 12.0047 115.77 12.0047C118.01 12.0047 119.638 12.9952 120.322 14.5988C121.053 12.9952 122.703 12.0047 124.802 12.0047ZM136.978 24.4327C134.549 24.4327 132.852 23.5366 131.885 21.7915L134.361 20.4001C134.856 21.3434 135.634 21.7443 136.813 21.7443C137.898 21.7443 138.582 21.3198 138.582 20.6359C138.582 18.7493 132.168 20.3765 132.168 15.8723C132.168 13.7734 134.007 12.1227 136.884 12.1227C139.384 12.1227 140.893 13.3018 141.601 14.646L139.124 16.0373C138.747 15.1884 137.898 14.7875 136.955 14.7875C136.13 14.7875 135.516 15.1884 135.516 15.8015C135.516 17.6881 141.931 16.1788 141.931 20.5652C141.931 22.9234 139.643 24.4327 136.978 24.4327Z" fill="#EDEFEC"/>
<circle cx="18.866" cy="18.866" r="18.866" transform="matrix(-1 0 0 1 37.7319 0.165527)" fill="#9FE870"/>
<path d="M15.851 25.07H11.278C10.5681 25.07 9.91146 24.6914 9.55503 24.0762L7.27002 20.1175V20.116H7.26854L4.4082 15.1636H7.51109C9.13056 15.1636 10.6288 16.0272 11.4378 17.4306L12.9892 20.116L15.851 25.07Z" fill="#002E22"/>
<path d="M15.8525 23.0485L12.9922 18.0946L14.5436 15.4076C15.3541 14.0057 16.8508 13.1406 18.4703 13.1406H21.5717L18.7114 18.0931V18.0946L15.8525 23.0485Z" fill="#002E22"/>
<path d="M27.2919 25.07H22.719C22.009 25.07 21.3524 24.6914 20.996 24.0762L18.7109 20.1175V20.116L21.5713 15.1636H21.5728L24.4331 20.116H24.4346V20.1175L27.2919 25.07Z" fill="#002E22"/>
<path d="M27.2938 23.0485L24.4335 18.096V18.0946L25.9849 15.4091C26.7954 14.0057 28.2921 13.1421 29.9116 13.1421H33.0145L30.1541 18.0946H30.1527L27.2938 23.0485Z" fill="#002E22"/>
</svg>
