<svg width="156" height="36" viewBox="0 0 156 36" fill="none" xmlns="http://www.w3.org/2000/svg">
<g clip-path="url(#clip0_4_795)">
<path d="M30.1503 8.05625L18.0465 1.068C16.9568 0.438921 15.6142 0.438921 14.5245 1.068L2.42109 8.05625C1.33138 8.68535 0.660278 9.84809 0.660278 11.1063V25.0824C0.660278 26.3405 1.33138 27.5033 2.42109 28.1324L14.5249 35.1202C15.6146 35.7493 16.9572 35.7493 18.0469 35.1202L30.1507 28.1324C31.2404 27.5033 31.9115 26.3405 31.9115 25.0824V11.1063C31.9111 9.84809 31.2396 8.68535 30.1503 8.05625Z" fill="white"/>
<path d="M19.5001 20.8777C19.5001 22.7418 18.02 24.2992 16.1559 24.3267C14.2616 24.3542 12.7117 22.8105 12.7117 20.9095C12.7117 20.9095 12.7117 20.8565 12.7117 20.8286C12.7117 20.0401 12.0846 19.4012 11.311 19.4012C10.5374 19.4012 9.91028 20.0405 9.91028 20.8286C9.91028 20.8561 9.91028 20.9095 9.91028 20.9095C9.91028 24.3605 12.7074 27.1658 16.1391 27.1478C19.5594 27.1297 22.3015 24.3012 22.3015 20.8804V15.3608H19.5001V20.8777Z" fill="#1E1E1E"/>
<path d="M11.311 10.4052C10.5374 10.4052 9.91028 11.0323 9.91028 11.8059C9.91028 12.5795 10.5374 13.2066 11.311 13.2066H14.705V20.5562C14.705 21.3207 15.3042 21.9682 16.0688 21.9879C16.8593 22.0083 17.5064 21.3737 17.5064 20.5876V13.2062H22.3027V10.4048H11.311V10.4052Z" fill="#1E1E1E"/>
<path d="M45.5435 19.7792C44.9676 19.7792 44.5226 19.6221 44.2082 19.308C43.8942 18.9807 43.737 18.5291 43.737 17.9532V8.70541H40.6547C40.1701 8.70541 39.7971 8.58105 39.5352 8.33235C39.2867 8.07056 39.1622 7.70405 39.1622 7.23283C39.1622 6.74852 39.2867 6.38201 39.5352 6.13331C39.7971 5.88461 40.1701 5.76025 40.6547 5.76025H50.4323C50.9168 5.76025 51.2834 5.88461 51.5319 6.13331C51.7938 6.38201 51.9247 6.74852 51.9247 7.23283C51.9247 7.70405 51.7938 8.07056 51.5319 8.33235C51.2834 8.58105 50.9168 8.70541 50.4323 8.70541H47.3499V17.9532C47.3499 18.5291 47.1992 18.9807 46.8981 19.308C46.5971 19.6221 46.1456 19.7792 45.5435 19.7792Z" fill="white"/>
<path d="M54.9989 19.6025C54.3834 19.6025 53.9122 19.4454 53.5852 19.1312C53.2708 18.804 53.1136 18.3393 53.1136 17.7372V7.62552C53.1136 7.02341 53.2708 6.56528 53.5852 6.25111C53.9122 5.92389 54.3834 5.76025 54.9989 5.76025H61.655C62.1262 5.76025 62.4794 5.87806 62.715 6.11367C62.9506 6.34928 63.0686 6.68964 63.0686 7.13467C63.0686 7.59279 62.9506 7.9462 62.715 8.19491C62.4794 8.43052 62.1262 8.54836 61.655 8.54836H56.5694V11.1793H61.2229C61.6808 11.1793 62.028 11.2971 62.2636 11.5328C62.5121 11.7684 62.6366 12.1152 62.6366 12.5734C62.6366 13.0315 62.5121 13.3784 62.2636 13.614C62.028 13.8496 61.6808 13.9674 61.2229 13.9674H56.5694V16.8144H61.655C62.1262 16.8144 62.4794 16.9387 62.715 17.1874C62.9506 17.4231 63.0686 17.7634 63.0686 18.2084C63.0686 18.6666 62.9506 19.0134 62.715 19.249C62.4794 19.4847 62.1262 19.6025 61.655 19.6025H54.9989Z" fill="white"/>
<path d="M72.2026 19.8181C70.6709 19.8181 69.3555 19.5236 68.2562 18.9346C67.1566 18.3456 66.3124 17.5143 65.7231 16.441C65.1473 15.3677 64.8595 14.1111 64.8595 12.6712C64.8595 11.5979 65.0228 10.6227 65.3501 9.74571C65.6904 8.8687 66.175 8.11604 66.803 7.48774C67.4444 6.85944 68.2166 6.38167 69.1199 6.05444C70.0364 5.71412 71.0638 5.54395 72.2026 5.54395C72.8048 5.54395 73.4263 5.61592 74.0681 5.75991C74.7224 5.89081 75.2982 6.09373 75.7957 6.36858C76.1623 6.56494 76.4173 6.81365 76.5616 7.11469C76.7054 7.41576 76.7511 7.72335 76.699 8.03752C76.6598 8.35165 76.5482 8.63309 76.3652 8.88179C76.1817 9.1305 75.9461 9.30064 75.6583 9.39229C75.3702 9.47082 75.0562 9.42499 74.7159 9.25485C74.3231 9.07157 73.9303 8.93413 73.5378 8.84251C73.158 8.7378 72.7591 8.68543 72.34 8.68543C71.5285 8.68543 70.8479 8.84251 70.2979 9.15668C69.7612 9.45772 69.3555 9.90275 69.0807 10.4918C68.8059 11.0808 68.6685 11.8073 68.6685 12.6712C68.6685 13.5351 68.8059 14.2681 69.0807 14.8703C69.3555 15.4593 69.7612 15.9109 70.2979 16.225C70.8479 16.5261 71.5285 16.6766 72.34 16.6766C72.6803 16.6766 73.0468 16.6374 73.4396 16.5588C73.8321 16.4672 74.2184 16.3297 74.5979 16.1465C74.9907 15.9763 75.3375 15.9305 75.6385 16.0091C75.9529 16.0876 76.2015 16.2447 76.3846 16.4803C76.581 16.7159 76.7054 16.9908 76.758 17.3049C76.8101 17.606 76.7644 17.907 76.6202 18.2081C76.4896 18.5091 76.254 18.7513 75.9133 18.9346C75.4555 19.2095 74.886 19.4254 74.2055 19.5825C73.5378 19.7396 72.8702 19.8181 72.2026 19.8181Z" fill="white"/>
<path d="M80.5371 19.7791C79.9612 19.7791 79.5162 19.622 79.2022 19.3079C78.8878 18.9806 78.7306 18.5225 78.7306 17.9335V7.42913C78.7306 6.82701 78.8878 6.36885 79.2022 6.05471C79.5162 5.74054 79.9612 5.5835 80.5371 5.5835C81.1263 5.5835 81.5712 5.74054 81.8723 6.05471C82.1863 6.36885 82.3435 6.82701 82.3435 7.42913V11.1007H88.0571V7.42913C88.0571 6.82701 88.2075 6.36885 88.5086 6.05471C88.823 5.74054 89.2744 5.5835 89.8636 5.5835C90.4395 5.5835 90.878 5.74054 91.1791 6.05471C91.4931 6.36885 91.6503 6.82701 91.6503 7.42913V17.9335C91.6503 18.5225 91.4931 18.9806 91.1791 19.3079C90.878 19.622 90.4395 19.7791 89.8636 19.7791C89.2744 19.7791 88.823 19.622 88.5086 19.3079C88.2075 18.9806 88.0571 18.5225 88.0571 17.9335V14.0655H82.3435V17.9335C82.3435 18.5225 82.1928 18.9806 81.8921 19.3079C81.591 19.622 81.1392 19.7791 80.5371 19.7791Z" fill="white"/>
<path d="M95.9924 19.6026C95.4165 19.6026 94.9647 19.4455 94.6374 19.1314C94.3233 18.8041 94.1661 18.3526 94.1661 17.7766V7.56675C94.1661 6.97769 94.3233 6.52611 94.6374 6.21198C94.9518 5.89781 95.3967 5.74072 95.9726 5.74072C96.5618 5.74072 97.0068 5.89781 97.3078 6.21198C97.6219 6.52611 97.7791 6.97769 97.7791 7.56675V16.5985H102.57C103.067 16.5985 103.447 16.7294 103.709 16.9912C103.983 17.2399 104.121 17.6064 104.121 18.0908C104.121 18.5751 103.983 18.9481 103.709 19.2099C103.447 19.4717 103.067 19.6026 102.57 19.6026H95.9924Z" fill="white"/>
<path d="M107.457 19.7791C106.881 19.7791 106.436 19.622 106.122 19.3079C105.808 18.9806 105.651 18.5225 105.651 17.9335V7.42913C105.651 6.82701 105.808 6.36885 106.122 6.05471C106.436 5.74054 106.881 5.5835 107.457 5.5835C108.046 5.5835 108.491 5.74054 108.792 6.05471C109.106 6.36885 109.263 6.82701 109.263 7.42913V17.9335C109.263 18.5225 109.113 18.9806 108.812 19.3079C108.511 19.622 108.059 19.7791 107.457 19.7791Z" fill="white"/>
<path d="M113.458 19.7791C112.908 19.7791 112.489 19.6351 112.201 19.3471C111.914 19.0592 111.77 18.6338 111.77 18.0709V7.37021C111.77 6.79428 111.914 6.35575 112.201 6.05471C112.489 5.74054 112.869 5.5835 113.34 5.5835C113.759 5.5835 114.087 5.66202 114.322 5.81911C114.558 5.97615 114.819 6.23795 115.107 6.60446L121.331 14.3797H120.782V7.27204C120.782 6.72226 120.919 6.30342 121.194 6.01543C121.482 5.72745 121.901 5.5835 122.45 5.5835C123 5.5835 123.413 5.72745 123.688 6.01543C123.976 6.30342 124.12 6.72226 124.12 7.27204V18.1495C124.12 18.6469 123.989 19.0461 123.727 19.3471C123.465 19.6351 123.112 19.7791 122.667 19.7791C122.221 19.7791 121.868 19.7006 121.606 19.5435C121.358 19.3733 121.089 19.1115 120.801 18.7581L114.577 10.9633H115.127V18.0709C115.127 18.6338 114.983 19.0592 114.695 19.3471C114.42 19.6351 114.008 19.7791 113.458 19.7791Z" fill="white"/>
<path d="M133.715 19.8181C132.131 19.8181 130.783 19.5236 129.67 18.9346C128.571 18.3456 127.733 17.5209 127.157 16.4606C126.581 15.4004 126.293 14.1634 126.293 12.7497C126.293 11.6502 126.463 10.662 126.804 9.78495C127.157 8.89489 127.661 8.13568 128.315 7.50738C128.97 6.86598 129.768 6.38167 130.711 6.05444C131.666 5.71412 132.746 5.54395 133.951 5.54395C134.605 5.54395 135.273 5.60938 135.953 5.74027C136.634 5.85808 137.302 6.08718 137.956 6.4275C138.296 6.58458 138.525 6.8071 138.643 7.09505C138.774 7.36994 138.813 7.66447 138.761 7.9786C138.722 8.27968 138.61 8.56107 138.427 8.82287C138.257 9.07157 138.021 9.24175 137.72 9.33337C137.419 9.41189 137.079 9.3661 136.699 9.19593C136.307 9.01269 135.881 8.87525 135.423 8.78363C134.965 8.67888 134.481 8.62654 133.97 8.62654C133.093 8.62654 132.36 8.78363 131.771 9.09776C131.195 9.41189 130.763 9.8766 130.475 10.4918C130.187 11.107 130.043 11.8597 130.043 12.7497C130.043 14.0849 130.37 15.0928 131.025 15.7735C131.679 16.4541 132.648 16.7944 133.931 16.7944C134.324 16.7944 134.749 16.7552 135.207 16.6766C135.678 16.5981 136.149 16.4868 136.621 16.3428L135.953 17.6976V14.3401H134.579C134.134 14.3401 133.787 14.2289 133.538 14.0063C133.303 13.7838 133.185 13.4697 133.185 13.0639C133.185 12.6581 133.303 12.3505 133.538 12.1411C133.787 11.9186 134.134 11.8073 134.579 11.8073H137.485C137.943 11.8073 138.29 11.9317 138.525 12.1804C138.774 12.416 138.898 12.7628 138.898 13.221V17.5602C138.898 17.9529 138.813 18.2866 138.643 18.5615C138.486 18.8364 138.231 19.0327 137.878 19.1505C137.262 19.36 136.594 19.5236 135.875 19.6414C135.155 19.7592 134.435 19.8181 133.715 19.8181Z" fill="white"/>
<path d="M147.992 19.8181C146.592 19.8181 145.361 19.5236 144.301 18.9346C143.241 18.3325 142.416 17.4947 141.827 16.4214C141.251 15.348 140.963 14.098 140.963 12.6712C140.963 11.5979 141.127 10.6227 141.454 9.74571C141.795 8.8687 142.272 8.11604 142.887 7.48774C143.516 6.85944 144.262 6.38167 145.126 6.05444C145.989 5.71412 146.945 5.54395 147.992 5.54395C149.393 5.54395 150.617 5.83848 151.664 6.4275C152.724 7.01652 153.549 7.8477 154.138 8.92104C154.727 9.98131 155.021 11.2314 155.021 12.6712C155.021 13.7446 154.851 14.7197 154.511 15.5967C154.184 16.4737 153.706 17.2329 153.078 17.8743C152.462 18.5026 151.723 18.9869 150.859 19.3273C149.995 19.6545 149.039 19.8181 147.992 19.8181ZM147.992 16.7944C148.686 16.7944 149.275 16.6308 149.76 16.3036C150.244 15.9763 150.617 15.5051 150.879 14.8899C151.14 14.2747 151.271 13.5351 151.271 12.6712C151.271 11.3753 150.983 10.3675 150.407 9.64754C149.832 8.92758 149.026 8.56762 147.992 8.56762C147.312 8.56762 146.723 8.73125 146.225 9.05848C145.741 9.37265 145.368 9.83732 145.106 10.4525C144.844 11.0546 144.713 11.7942 144.713 12.6712C144.713 13.9671 145.001 14.9815 145.577 15.7145C146.153 16.4345 146.958 16.7944 147.992 16.7944Z" fill="white"/>
<path d="M48.0986 27.5533L49.0034 24.0898H49.9999L48.6144 29.1013H47.6107L46.4657 25.5318L45.3204 29.1013H44.3026L42.9103 24.0898H43.9422L44.861 27.5392L45.9709 24.0898H46.9815L48.0986 27.5533Z" fill="white"/>
<path d="M51.0041 26.9666H52.559C52.5495 26.7734 52.4791 26.6108 52.347 26.4789C52.2199 26.3469 52.0315 26.2809 51.7814 26.2809C51.5553 26.2809 51.3715 26.3516 51.2302 26.493C51.089 26.6344 51.0133 26.7922 51.0041 26.9666ZM52.6511 27.8713L53.4356 28.1046C53.3412 28.425 53.1551 28.6889 52.8772 28.8962C52.6039 29.1036 52.2621 29.2072 51.8522 29.2072C51.3528 29.2072 50.9288 29.04 50.5797 28.7054C50.2311 28.3661 50.0568 27.9137 50.0568 27.3483C50.0568 26.8111 50.2265 26.3729 50.5657 26.0336C50.9052 25.6895 51.3056 25.5176 51.7673 25.5176C52.3048 25.5176 52.7238 25.6778 53.0257 25.9982C53.3321 26.3187 53.4851 26.7592 53.4851 27.32C53.4851 27.3577 53.4828 27.4001 53.4779 27.4472C53.4779 27.4943 53.4779 27.5321 53.4779 27.5603L53.471 27.6098H50.9828C50.9923 27.836 51.0818 28.0245 51.2516 28.1753C51.4209 28.326 51.6238 28.4014 51.8594 28.4014C52.2598 28.4014 52.5236 28.2248 52.6511 27.8713Z" fill="white"/>
<path d="M56.9129 29.1015H55.9728V25.6239H56.8703V26.048C56.9601 25.8878 57.1013 25.7605 57.2947 25.6663C57.4877 25.572 57.6856 25.5249 57.8881 25.5249C58.3924 25.5249 58.7365 25.7181 58.9204 26.1045C59.1701 25.7181 59.5378 25.5249 60.0231 25.5249C60.3763 25.5249 60.6732 25.6357 60.9137 25.8571C61.1585 26.0786 61.281 26.4085 61.281 26.8467V29.1015H60.3694V27.0376C60.3694 26.8396 60.3173 26.6818 60.2137 26.564C60.1148 26.4415 59.9618 26.3802 59.7543 26.3802C59.561 26.3802 59.4057 26.4461 59.2877 26.5781C59.1701 26.71 59.1111 26.8726 59.1111 27.0658V29.1015H58.1781V27.0376C58.1781 26.8396 58.1264 26.6818 58.0225 26.564C57.9189 26.4415 57.7659 26.3802 57.563 26.3802C57.3651 26.3802 57.2075 26.4461 57.0895 26.5781C56.9719 26.7053 56.9129 26.8679 56.9129 27.0658V29.1015Z" fill="white"/>
<path d="M62.0216 28.1541C62.0216 27.8572 62.1183 27.6192 62.3116 27.4402C62.5046 27.2611 62.7543 27.148 63.0607 27.1009L63.916 26.9736C64.0903 26.9501 64.1775 26.8676 64.1775 26.7263C64.1775 26.5943 64.1257 26.4859 64.0222 26.4011C63.9232 26.3163 63.7793 26.2739 63.5909 26.2739C63.393 26.2739 63.2351 26.3281 63.1174 26.4365C63.0044 26.5448 62.9404 26.6791 62.9264 26.8394L62.0924 26.6626C62.1255 26.3611 62.274 26.0948 62.5377 25.8639C62.8015 25.633 63.1502 25.5176 63.5837 25.5176C64.1021 25.5176 64.4839 25.6424 64.729 25.8922C64.9738 26.1372 65.0963 26.4529 65.0963 26.8394V28.5499C65.0963 28.7572 65.1104 28.941 65.139 29.1012H64.2765C64.2529 28.9976 64.2411 28.8585 64.2411 28.6842C64.0195 29.0282 63.6781 29.2002 63.2164 29.2002C62.8582 29.2002 62.5682 29.0965 62.347 28.8892C62.1301 28.6818 62.0216 28.4368 62.0216 28.1541ZM63.4143 28.5004C63.6355 28.5004 63.817 28.4392 63.9586 28.3166C64.1044 28.1894 64.1775 27.9821 64.1775 27.6946V27.5391L63.393 27.6593C63.1056 27.7017 62.9618 27.8477 62.9618 28.0975C62.9618 28.2106 63.0017 28.3072 63.082 28.3873C63.162 28.4627 63.2727 28.5004 63.4143 28.5004Z" fill="white"/>
<path d="M69.4147 25.6238L68.0224 27.0869L69.4429 29.1014H68.2907L67.3719 27.7726L66.9832 28.1825V29.1014H66.0431V23.9839H66.9832V26.9173L68.1849 25.6238H69.4147Z" fill="white"/>
<path d="M70.5194 26.9666H72.0746C72.0651 26.7734 71.9943 26.6108 71.8626 26.4789C71.7351 26.3469 71.5467 26.2809 71.297 26.2809C71.0709 26.2809 70.8871 26.3516 70.7459 26.493C70.6043 26.6344 70.5289 26.7922 70.5194 26.9666ZM72.1664 27.8713L72.9512 28.1046C72.8568 28.425 72.6707 28.6889 72.3925 28.8962C72.1192 29.1036 71.7778 29.2072 71.3678 29.2072C70.8681 29.2072 70.444 29.04 70.0954 28.7054C69.7467 28.3661 69.5724 27.9137 69.5724 27.3483C69.5724 26.8111 69.7422 26.3729 70.0813 26.0336C70.4204 25.6895 70.8212 25.5176 71.2829 25.5176C71.82 25.5176 72.2395 25.6778 72.5409 25.9982C72.8473 26.3187 73.0003 26.7592 73.0003 27.32C73.0003 27.3577 72.9981 27.4001 72.9935 27.4472C72.9935 27.4943 72.9935 27.5321 72.9935 27.5603L72.9863 27.6098H70.4985C70.5076 27.836 70.5974 28.0245 70.7668 28.1753C70.9366 28.326 71.1391 28.4014 71.3747 28.4014C71.7755 28.4014 72.0392 28.2248 72.1664 27.8713Z" fill="white"/>
<path d="M76.5464 29.1013H75.5568V24.0898H76.5464V29.1013Z" fill="white"/>
<path d="M81.3798 25.0158H79.7964V29.1013H78.814V25.0158H77.2306V24.0898H81.3798V25.0158Z" fill="white"/>
<path d="M84.4276 26.9666H85.9828C85.9733 26.7734 85.9025 26.6108 85.7708 26.4789C85.6433 26.3469 85.4549 26.2809 85.2052 26.2809C84.9791 26.2809 84.7953 26.3516 84.6541 26.493C84.5125 26.6344 84.4371 26.7922 84.4276 26.9666ZM86.0746 27.8713L86.8594 28.1046C86.765 28.425 86.5789 28.6889 86.3007 28.8962C86.0274 29.1036 85.686 29.2072 85.276 29.2072C84.7763 29.2072 84.3522 29.04 84.0036 28.7054C83.6549 28.3661 83.4806 27.9137 83.4806 27.3483C83.4806 26.8111 83.6503 26.3729 83.9895 26.0336C84.3286 25.6895 84.7294 25.5176 85.1911 25.5176C85.7282 25.5176 86.1477 25.6778 86.4491 25.9982C86.7555 26.3187 86.9089 26.7592 86.9089 27.32C86.9089 27.3577 86.9062 27.4001 86.9017 27.4472C86.9017 27.4943 86.9017 27.5321 86.9017 27.5603L86.8945 27.6098H84.4067C84.4158 27.836 84.5056 28.0245 84.675 28.1753C84.8448 28.326 85.0473 28.4014 85.2829 28.4014C85.6837 28.4014 85.9474 28.2248 86.0746 27.8713Z" fill="white"/>
<path d="M87.4376 28.1541C87.4376 27.8572 87.5343 27.6192 87.7277 27.4402C87.9206 27.2611 88.1703 27.148 88.4767 27.1009L89.332 26.9736C89.5063 26.9501 89.5935 26.8676 89.5935 26.7263C89.5935 26.5943 89.5417 26.4859 89.4382 26.4011C89.3392 26.3163 89.1954 26.2739 89.007 26.2739C88.809 26.2739 88.6511 26.3281 88.5335 26.4365C88.4204 26.5448 88.3565 26.6791 88.3424 26.8394L87.5084 26.6626C87.5415 26.3611 87.69 26.0948 87.9538 25.8639C88.2175 25.633 88.5662 25.5176 88.9997 25.5176C89.5181 25.5176 89.8999 25.6424 90.145 25.8922C90.3902 26.1372 90.5123 26.4529 90.5123 26.8394V28.5499C90.5123 28.7572 90.5268 28.941 90.555 29.1012H89.6925C89.6689 28.9976 89.6571 28.8585 89.6571 28.6842C89.4359 29.0282 89.0941 29.2002 88.6324 29.2002C88.2742 29.2002 87.9842 29.0965 87.7631 28.8892C87.5461 28.6818 87.4376 28.4368 87.4376 28.1541ZM88.8303 28.5004C89.0519 28.5004 89.2331 28.4392 89.3746 28.3166C89.5204 28.1894 89.5935 27.9821 89.5935 27.6946V27.5391L88.809 27.6593C88.5217 27.7017 88.3778 27.8477 88.3778 28.0975C88.3778 28.2106 88.4177 28.3072 88.4981 28.3873C88.578 28.4627 88.6887 28.5004 88.8303 28.5004Z" fill="white"/>
<path d="M91.1622 28.1328L91.968 27.9562C91.9775 28.107 92.0365 28.2342 92.1446 28.3378C92.2577 28.4368 92.4111 28.4863 92.6041 28.4863C92.7502 28.4863 92.8633 28.4533 92.9436 28.3873C93.0235 28.3214 93.0635 28.2389 93.0635 28.1399C93.0635 27.9656 92.9386 27.8525 92.6889 27.8006L92.2295 27.6946C91.9045 27.6239 91.6593 27.4967 91.4945 27.3129C91.3343 27.1292 91.254 26.91 91.254 26.6556C91.254 26.3399 91.3765 26.0712 91.6217 25.8498C91.8713 25.6283 92.1823 25.5176 92.5546 25.5176C92.7902 25.5176 92.9976 25.5529 93.1769 25.6236C93.3558 25.6895 93.4947 25.7767 93.5937 25.8851C93.6927 25.9888 93.768 26.0948 93.8198 26.2032C93.8719 26.3116 93.9047 26.4176 93.9187 26.5213L93.1343 26.698C93.1156 26.5755 93.0589 26.4671 92.9645 26.3729C92.8751 26.2786 92.7407 26.2315 92.5618 26.2315C92.4392 26.2315 92.333 26.2644 92.2436 26.3304C92.1587 26.3964 92.1165 26.4789 92.1165 26.5778C92.1165 26.7475 92.2227 26.8511 92.4347 26.8888L92.9295 26.9948C93.2641 27.0655 93.5183 27.1951 93.6927 27.3836C93.8719 27.5721 93.9614 27.7983 93.9614 28.0622C93.9614 28.3732 93.8434 28.6418 93.6078 28.8679C93.3722 29.0942 93.0403 29.2072 92.6113 29.2072C92.3662 29.2072 92.1469 29.1719 91.9539 29.1012C91.7606 29.0258 91.6099 28.9316 91.5014 28.8185C91.3978 28.7007 91.3179 28.5852 91.2612 28.4721C91.2094 28.3543 91.1763 28.2412 91.1622 28.1328Z" fill="white"/>
<path d="M95.8653 30.4729H94.8684L95.6883 28.6634L94.2111 25.624H95.2643L96.1903 27.6597L97.0456 25.624H98.0493L95.8653 30.4729Z" fill="white"/>
<path d="M101.523 24.585V25.624H102.223V26.4581H101.523V27.9142C101.523 28.0603 101.556 28.1639 101.622 28.2252C101.688 28.2864 101.792 28.3171 101.933 28.3171C102.06 28.3171 102.157 28.3076 102.223 28.2888V29.0663C102.086 29.1229 101.91 29.1511 101.693 29.1511C101.354 29.1511 101.085 29.0569 100.887 28.8684C100.689 28.6752 100.59 28.4113 100.59 28.0767V26.4581H99.9612V25.624H100.138C100.312 25.624 100.444 25.5745 100.534 25.4756C100.628 25.3719 100.675 25.2376 100.675 25.0727V24.585H101.523Z" fill="white"/>
<path d="M103.921 28.0904C104.096 28.2648 104.306 28.352 104.55 28.352C104.795 28.352 105.003 28.2648 105.173 28.0904C105.347 27.9161 105.434 27.6734 105.434 27.3624C105.434 27.0514 105.347 26.8087 105.173 26.6344C105.003 26.46 104.795 26.3729 104.55 26.3729C104.306 26.3729 104.096 26.46 103.921 26.6344C103.752 26.8087 103.667 27.0514 103.667 27.3624C103.667 27.6734 103.752 27.9161 103.921 28.0904ZM103.243 26.0406C103.591 25.6919 104.027 25.5176 104.55 25.5176C105.074 25.5176 105.507 25.6919 105.851 26.0406C106.2 26.3893 106.374 26.8299 106.374 27.3624C106.374 27.8949 106.2 28.3355 105.851 28.6842C105.507 29.0329 105.074 29.2072 104.55 29.2072C104.027 29.2072 103.591 29.0329 103.243 28.6842C102.899 28.3355 102.727 27.8949 102.727 27.3624C102.727 26.8299 102.899 26.3893 103.243 26.0406Z" fill="white"/>
<path d="M108.613 29.2922L109.462 29.066C109.495 29.2592 109.584 29.417 109.73 29.5395C109.876 29.6621 110.058 29.7233 110.274 29.7233C110.892 29.7233 111.201 29.4005 111.201 28.7549V28.5005C111.121 28.6277 110.998 28.7337 110.833 28.8186C110.668 28.9034 110.468 28.9458 110.232 28.9458C109.771 28.9458 109.384 28.7856 109.073 28.4651C108.767 28.1447 108.613 27.7418 108.613 27.2564C108.613 26.7852 108.767 26.3847 109.073 26.0548C109.379 25.725 109.766 25.5601 110.232 25.5601C110.486 25.5601 110.699 25.6072 110.868 25.7014C111.038 25.7909 111.156 25.9017 111.222 26.0336V25.6237H112.127V28.7267C112.127 29.2497 111.976 29.6833 111.674 30.0273C111.373 30.376 110.915 30.5503 110.303 30.5503C109.846 30.5503 109.462 30.4278 109.151 30.1828C108.844 29.9377 108.666 29.6409 108.613 29.2922ZM110.395 28.14C110.635 28.14 110.831 28.0599 110.981 27.8997C111.137 27.7395 111.215 27.5251 111.215 27.2564C111.215 26.9926 111.135 26.7805 110.974 26.6203C110.819 26.4601 110.626 26.38 110.395 26.38C110.155 26.38 109.954 26.4601 109.794 26.6203C109.638 26.7805 109.561 26.9926 109.561 27.2564C109.561 27.5251 109.638 27.7395 109.794 27.8997C109.949 28.0599 110.15 28.14 110.395 28.14Z" fill="white"/>
<path d="M115.199 25.6099V26.557C115.104 26.5382 115.01 26.5287 114.916 26.5287C114.647 26.5287 114.431 26.6065 114.266 26.762C114.101 26.9128 114.018 27.1625 114.018 27.5113V29.1016H113.078V25.624H113.99V26.14C114.16 25.7771 114.49 25.5957 114.979 25.5957C115.031 25.5957 115.104 25.6004 115.199 25.6099Z" fill="white"/>
<path d="M115.67 28.1541C115.67 27.8572 115.767 27.6192 115.96 27.4402C116.153 27.2611 116.403 27.148 116.709 27.1009L117.564 26.9736C117.739 26.9501 117.826 26.8676 117.826 26.7263C117.826 26.5943 117.774 26.4859 117.671 26.4011C117.572 26.3163 117.428 26.2739 117.239 26.2739C117.041 26.2739 116.883 26.3281 116.766 26.4365C116.653 26.5448 116.589 26.6791 116.575 26.8394L115.741 26.6626C115.774 26.3611 115.922 26.0948 116.186 25.8639C116.45 25.633 116.799 25.5176 117.233 25.5176C117.751 25.5176 118.132 25.6424 118.377 25.8922C118.623 26.1372 118.745 26.4529 118.745 26.8394V28.5499C118.745 28.7572 118.759 28.941 118.787 29.1012H117.925C117.901 28.9976 117.89 28.8585 117.89 28.6842C117.668 29.0282 117.327 29.2002 116.865 29.2002C116.507 29.2002 116.217 29.0965 115.995 28.8892C115.779 28.6818 115.67 28.4368 115.67 28.1541ZM117.063 28.5004C117.284 28.5004 117.465 28.4392 117.607 28.3166C117.753 28.1894 117.826 27.9821 117.826 27.6946V27.5391L117.041 27.6593C116.754 27.7017 116.61 27.8477 116.61 28.0975C116.61 28.2106 116.651 28.3072 116.73 28.3873C116.81 28.4627 116.921 28.5004 117.063 28.5004Z" fill="white"/>
<path d="M119.395 28.1328L120.2 27.9562C120.21 28.107 120.269 28.2342 120.377 28.3378C120.49 28.4368 120.643 28.4863 120.836 28.4863C120.983 28.4863 121.096 28.4533 121.176 28.3873C121.256 28.3214 121.296 28.2389 121.296 28.1399C121.296 27.9656 121.171 27.8525 120.921 27.8006L120.462 27.6946C120.137 27.6239 119.892 27.4967 119.727 27.3129C119.567 27.1292 119.487 26.91 119.487 26.6556C119.487 26.3399 119.609 26.0712 119.854 25.8498C120.104 25.6283 120.415 25.5176 120.787 25.5176C121.023 25.5176 121.23 25.5529 121.409 25.6236C121.588 25.6895 121.727 25.7767 121.826 25.8851C121.925 25.9888 122 26.0948 122.053 26.2032C122.104 26.3116 122.137 26.4176 122.152 26.5213L121.367 26.698C121.348 26.5755 121.291 26.4671 121.197 26.3729C121.107 26.2786 120.974 26.2315 120.794 26.2315C120.672 26.2315 120.566 26.2644 120.476 26.3304C120.392 26.3964 120.349 26.4789 120.349 26.5778C120.349 26.7475 120.455 26.8511 120.667 26.8888L121.162 26.9948C121.496 27.0655 121.751 27.1951 121.925 27.3836C122.104 27.5721 122.194 27.7983 122.194 28.0622C122.194 28.3732 122.076 28.6418 121.84 28.8679C121.605 29.0942 121.273 29.2072 120.844 29.2072C120.599 29.2072 120.38 29.1719 120.186 29.1012C119.993 29.0258 119.842 28.9316 119.734 28.8185C119.63 28.7007 119.55 28.5852 119.494 28.4721C119.442 28.3543 119.409 28.2412 119.395 28.1328Z" fill="white"/>
<path d="M123.889 30.4443H122.949V25.6237H123.861V26.0478C123.946 25.9064 124.082 25.7886 124.271 25.6943C124.46 25.5954 124.679 25.5459 124.928 25.5459C125.423 25.5459 125.814 25.7155 126.102 26.0548C126.389 26.3894 126.533 26.8229 126.533 27.3554C126.533 27.8879 126.38 28.3261 126.074 28.6701C125.772 29.0141 125.379 29.1861 124.893 29.1861C124.431 29.1861 124.097 29.0447 123.889 28.762V30.4443ZM125.359 28.0835C125.525 27.9044 125.607 27.6641 125.607 27.3625C125.607 27.0609 125.525 26.8229 125.359 26.6486C125.199 26.4742 124.994 26.387 124.745 26.387C124.495 26.387 124.288 26.4766 124.122 26.6557C123.958 26.83 123.875 27.0656 123.875 27.3625C123.875 27.6593 123.958 27.8973 124.122 28.0764C124.288 28.2554 124.495 28.345 124.745 28.345C124.994 28.345 125.199 28.2578 125.359 28.0835Z" fill="white"/>
<path d="M130.636 24.7616C130.504 24.7616 130.388 24.7993 130.29 24.8747C130.195 24.9454 130.148 25.0679 130.148 25.2422V25.6239H130.933V26.4297H130.148V29.1016H129.201V26.4297H128.621V25.6239H129.201V25.2281C129.201 24.837 129.314 24.5236 129.54 24.288C129.771 24.0524 130.08 23.9346 130.466 23.9346C130.674 23.9346 130.829 23.9581 130.933 24.0053V24.7969C130.852 24.7734 130.753 24.7616 130.636 24.7616Z" fill="white"/>
<path d="M132.4 28.0904C132.574 28.2648 132.784 28.352 133.029 28.352C133.274 28.352 133.481 28.2648 133.651 28.0904C133.825 27.9161 133.913 27.6734 133.913 27.3624C133.913 27.0514 133.825 26.8087 133.651 26.6344C133.481 26.46 133.274 26.3729 133.029 26.3729C132.784 26.3729 132.574 26.46 132.4 26.6344C132.23 26.8087 132.145 27.0514 132.145 27.3624C132.145 27.6734 132.23 27.9161 132.4 28.0904ZM131.721 26.0406C132.07 25.6919 132.506 25.5176 133.029 25.5176C133.552 25.5176 133.986 25.6919 134.329 26.0406C134.678 26.3893 134.853 26.8299 134.853 27.3624C134.853 27.8949 134.678 28.3355 134.329 28.6842C133.986 29.0329 133.552 29.2072 133.029 29.2072C132.506 29.2072 132.07 29.0329 131.721 28.6842C131.377 28.3355 131.205 27.8949 131.205 27.3624C131.205 26.8299 131.377 26.3893 131.721 26.0406Z" fill="white"/>
<path d="M137.714 25.6099V26.557C137.62 26.5382 137.526 26.5287 137.432 26.5287C137.163 26.5287 136.946 26.6065 136.781 26.762C136.617 26.9128 136.534 27.1625 136.534 27.5113V29.1016H135.594V25.624H136.506V26.14C136.675 25.7771 137.005 25.5957 137.495 25.5957C137.547 25.5957 137.62 25.6004 137.714 25.6099Z" fill="white"/>
<path d="M141.304 30.4729H140.308L141.128 28.6634L139.651 25.624H140.704L141.629 27.6597L142.485 25.624H143.488L141.304 30.4729Z" fill="white"/>
<path d="M144.826 28.0904C145 28.2648 145.21 28.352 145.455 28.352C145.7 28.352 145.907 28.2648 146.077 28.0904C146.251 27.9161 146.338 27.6734 146.338 27.3624C146.338 27.0514 146.251 26.8087 146.077 26.6344C145.907 26.46 145.7 26.3729 145.455 26.3729C145.21 26.3729 145 26.46 144.826 26.6344C144.656 26.8087 144.571 27.0514 144.571 27.3624C144.571 27.6734 144.656 27.9161 144.826 28.0904ZM144.147 26.0406C144.496 25.6919 144.932 25.5176 145.455 25.5176C145.978 25.5176 146.411 25.6919 146.755 26.0406C147.104 26.3893 147.279 26.8299 147.279 27.3624C147.279 27.8949 147.104 28.3355 146.755 28.6842C146.411 29.0329 145.978 29.2072 145.455 29.2072C144.932 29.2072 144.496 29.0329 144.147 28.6842C143.803 28.3355 143.631 27.8949 143.631 27.3624C143.631 26.8299 143.803 26.3893 144.147 26.0406Z" fill="white"/>
<path d="M150.282 29.1017C150.263 29.0074 150.254 28.8825 150.254 28.727C150.164 28.8825 150.03 29.0003 149.851 29.0805C149.677 29.1558 149.491 29.1936 149.293 29.1936C148.883 29.1936 148.56 29.064 148.324 28.8048C148.089 28.5409 147.971 28.2134 147.971 27.8223V25.624H148.911V27.6315C148.911 27.8388 148.965 28.0084 149.074 28.1404C149.182 28.2676 149.34 28.3312 149.547 28.3312C149.75 28.3312 149.91 28.27 150.028 28.1474C150.145 28.0202 150.204 27.8529 150.204 27.6456V25.624H151.145V28.4726C151.145 28.6941 151.156 28.9037 151.18 29.1017H150.282Z" fill="white"/>
</g>
<defs>
<clipPath id="clip0_4_795">
<rect width="154.535" height="35.0178" fill="white" transform="translate(0.660278 0.596191)"/>
</clipPath>
</defs>
</svg>
